<svg width="26" height="18" viewBox="0 0 26 18" fill="none" xmlns="http://www.w3.org/2000/svg">
<path d="M15.6797 4.28281H10.3059V13.7172H15.6797V4.28281Z" fill="#FF5F00"/>
<path d="M10.6472 9.00001C10.6463 8.09141 10.8571 7.19453 11.2635 6.37726C11.6699 5.56 12.2612 4.84378 12.9928 4.28282C12.0869 3.58709 10.9988 3.15443 9.853 3.03428C8.70722 2.91414 7.54995 3.11135 6.51347 3.60339C5.47699 4.09544 4.60312 4.86245 3.99174 5.81676C3.38037 6.77108 3.05615 7.87418 3.05615 9.00001C3.05615 10.1258 3.38037 11.2289 3.99174 12.1832C4.60312 13.1376 5.47699 13.9046 6.51347 14.3966C7.54995 14.8887 8.70722 15.0859 9.853 14.9657C10.9988 14.8456 12.0869 14.4129 12.9928 13.7172C12.2612 13.1562 11.6699 12.44 11.2635 11.6227C10.8571 10.8055 10.6463 9.9086 10.6472 9.00001Z" fill="#EB001B"/>
<path d="M22.9293 9C22.9294 10.1258 22.6052 11.2289 21.9938 12.1832C21.3825 13.1375 20.5086 13.9046 19.4722 14.3966C18.4357 14.8886 17.2785 15.0859 16.1327 14.9657C14.9869 14.8456 13.8989 14.4129 12.9929 13.7172C13.7239 13.1557 14.3148 12.4393 14.7211 11.6222C15.1275 10.8051 15.3386 9.90846 15.3386 9C15.3386 8.09155 15.1275 7.19495 14.7211 6.37782C14.3148 5.56068 13.7239 4.84434 12.9929 4.28281C13.8989 3.58709 14.9869 3.15443 16.1327 3.03428C17.2785 2.91414 18.4357 3.11136 19.4722 3.60341C20.5086 4.09545 21.3825 4.86247 21.9938 5.81678C22.6052 6.7711 22.9294 7.8742 22.9293 9Z" fill="#F79E1B"/>
<path d="M22.3433 12.7179V12.5248H22.423V12.4854H22.22V12.5248H22.2997V12.7179H22.3433ZM22.7374 12.7179V12.4851H22.6752L22.6036 12.6452L22.532 12.4851H22.4698V12.7179H22.5137V12.5423L22.5808 12.6937H22.6264L22.6935 12.5419V12.7179H22.7374Z" fill="#F79E1B"/>
</svg>
