<svg width="18" height="18" viewBox="0 0 18 18" fill="none" xmlns="http://www.w3.org/2000/svg">
<path d="M14.2396 5.1825C14.2797 3.09562 12.5577 1.49362 10.1899 1.49362H5.29318C5.17903 1.49366 5.06865 1.53443 4.98189 1.60861C4.89514 1.68279 4.8377 1.78549 4.81993 1.89825L2.85755 14.1592C2.84877 14.2148 2.85214 14.2716 2.86742 14.3257C2.8827 14.3799 2.90953 14.43 2.94606 14.4728C2.98259 14.5156 3.02795 14.5499 3.07903 14.5735C3.13011 14.597 3.18568 14.6092 3.24193 14.6092H6.1433L5.68955 17.4487C5.68077 17.5043 5.68414 17.5612 5.69945 17.6153C5.71475 17.6695 5.74161 17.7197 5.77818 17.7625C5.81475 17.8052 5.86016 17.8396 5.91129 17.8631C5.96241 17.8866 6.01803 17.8988 6.0743 17.8987H8.43755C8.55193 17.8987 8.65355 17.8575 8.74018 17.7836C8.8268 17.7094 8.84105 17.607 8.85868 17.4941L9.55243 13.4122C9.57005 13.2997 9.62743 13.1535 9.71443 13.0792C9.80105 13.005 9.8768 12.9645 9.9908 12.9641H11.4376C13.7562 12.9641 15.7238 11.3164 16.0834 9.024C16.3377 7.3965 15.6402 5.91637 14.2399 5.1825H14.2396Z" fill="#001C64"/>
<path d="M6.77099 10.0875L6.04836 14.67L5.59461 17.544C5.58583 17.5996 5.58921 17.6564 5.60451 17.7106C5.61981 17.7647 5.64667 17.8149 5.68324 17.8577C5.71981 17.9005 5.76522 17.9348 5.81635 17.9583C5.86747 17.9819 5.92309 17.994 5.97936 17.994H8.48061C8.59469 17.9939 8.70499 17.9531 8.79167 17.8789C8.87835 17.8047 8.93572 17.7021 8.95349 17.5894L9.61274 13.4119C9.63051 13.2992 9.6879 13.1966 9.77459 13.1225C9.86128 13.0484 9.97157 13.0077 10.0856 13.0076H11.5582C13.8769 13.0076 15.8441 11.3164 16.2037 9.024C16.4587 7.39688 15.6397 5.91675 14.2395 5.1825C14.2357 5.35575 14.2207 5.52863 14.1941 5.7C13.8345 7.992 11.8669 9.68363 9.54824 9.68363H7.24386C7.12987 9.68365 7.01963 9.72433 6.93295 9.79836C6.84627 9.8724 6.78884 9.97492 6.77099 10.0875Z" fill="#0070E0"/>
<path d="M6.04799 14.67H3.13799C3.08172 14.67 3.02612 14.6579 2.97501 14.6343C2.9239 14.6108 2.87851 14.5765 2.84196 14.5337C2.80542 14.4909 2.7786 14.4407 2.76334 14.3865C2.74809 14.3324 2.74477 14.2756 2.75361 14.22L4.71561 1.77675C4.7334 1.66403 4.79084 1.56137 4.87761 1.48725C4.96437 1.41314 5.07475 1.37244 5.18886 1.3725H10.1902C12.5576 1.3725 14.2796 3.09562 14.2395 5.1825C13.6504 4.8735 12.9581 4.69687 12.1995 4.69687H8.02986C7.91584 4.69698 7.80559 4.73775 7.71892 4.81184C7.63225 4.88593 7.57483 4.9885 7.55699 5.10112L6.77136 10.0875L6.04761 14.67H6.04799Z" fill="#003087"/>
</svg>
